<svg id="Layer_1" data-name="Layer 1" xmlns="http://www.w3.org/2000/svg" viewBox="0 0 355.16 47.91"><title>annette-tillander-bold</title><path d="M35.73,30.46c.17-.4.75-1.73,1.85-2a2.37,2.37,0,0,1,.92,1.62,2.61,2.61,0,0,1-.41,1.67c-.28.46-.69,1.38-1.78,1C35.5,32.48,35.5,31.15,35.73,30.46Zm-4.79-5.25A42.48,42.48,0,0,1,44.78,8c5,4.9,5.6,12.57,4.16,17.59a20.56,20.56,0,0,0-11.19,1.85h-.23A13,13,0,0,0,30.94,25.21ZM45.48,7.05A24.6,24.6,0,0,0,23,3.13C15.49,5.67,10.65,9.07,7.82,16.39,5.28,23.2,6,30.75,10.53,38.36l.23-.17c-3.34-6.86-4.61-13.09-2-20a24.34,24.34,0,0,1,17-15C30.89,1.8,39.07,3,44.26,7.57c-8.07,5.25-10.26,8.24-14.64,16l-1,1.61a36.65,36.65,0,0,0-8.54,2.43l.18.4a43.32,43.32,0,0,1,8-2.13l-3.57,6.92c-3.81,7.55-8.88,14-16.84,13.37a8.54,8.54,0,0,1-3.35-.92A6.17,6.17,0,0,1,2.92,44c-.64-.8-.81-1.84-.17-2,.4-.12.63.4,1.09.28a.65.65,0,0,0,.46-.4,1.26,1.26,0,0,0-.86-1.79,1.71,1.71,0,0,0-2,.92,2.41,2.41,0,0,0,.11,2.48C3.21,46.2,7.19,46.78,9,46.72c8.94-.11,13.32-5.88,18-14.53l3.46-6.34a10.17,10.17,0,0,1,6.52,2.07,6.78,6.78,0,0,0-1.79,1.85A3.06,3.06,0,0,0,35,32.31a1.71,1.71,0,0,0,1.67,1.09,2.18,2.18,0,0,0,2-1.21c.81-1.32.58-2.59-.4-4.15a16.72,16.72,0,0,1,10.55-1.73l-2.42,11c-.58,2.48-1.62,6.81-.06,8.54a2.2,2.2,0,0,0,2.13.81c2-.35,4.27-4,5-5.77l-.29-.35c-.86,1.73-2.36,4.16-3.51,4.73a1.27,1.27,0,0,1-1.45,0c-1.15-1,.18-5.88.52-7.61l2.48-10.78c1.21.23,1.79.34,2.54.46v-.41s-1.85-.63-2.42-.86c1-7.5.29-12.57-5.37-18.63a57.91,57.91,0,0,1,6.06-2.53l-.23-.41A50,50,0,0,0,45.48,7.05Z" fill="none" stroke="#473729" stroke-width="2.37"/><path d="M71,43.44l.58-2.83c1-4.61,1.27-5.53.63-6.69A2.18,2.18,0,0,0,70,33.29c-1.79.34-5.31,6.28-6.46,8.13L62.08,44l1.16-4.85c.8-3.11,1.09-4.5.51-5.3a1.53,1.53,0,0,0-1.44-.58c-1.73.17-3.11,2.42-3.51,3.58h.46s1.5-2.77,2.36-2.54.52,1.27.35,2.13l-2.19,8.94h2l2.94-4.56A65.92,65.92,0,0,1,68.6,35c.63-.69,1-1,1.5-.87.75.18.63,1,.52,1.56l-1.5,7.15a3.4,3.4,0,0,0,.11,2.36,1.64,1.64,0,0,0,1.62.64c2-.06,3.17-2.42,4-3.86a1,1,0,0,0-.46,0c-.17.23-.86,1.32-1.09,1.55-.58.81-1.16,1.44-1.79,1.39S70.85,44.24,71,43.44Z" fill="none" stroke="#473729" stroke-width="2.37"/><path d="M93.05,43.44l.58-2.83c1-4.61,1.26-5.53.63-6.69a2.19,2.19,0,0,0-2.19-.63c-1.79.34-5.31,6.28-6.46,8.13L84.11,44l1.15-4.85c.81-3.11,1.1-4.5.52-5.3a1.53,1.53,0,0,0-1.44-.58c-1.73.17-3.11,2.42-3.52,3.58h.46s1.5-2.77,2.37-2.54.52,1.27.35,2.13l-2.2,8.94h2l2.94-4.56A65.92,65.92,0,0,1,90.63,35c.63-.69,1-1,1.5-.87.75.18.63,1,.52,1.56l-1.5,7.15a3.4,3.4,0,0,0,.11,2.36,1.64,1.64,0,0,0,1.62.64c2-.06,3.17-2.42,4-3.86a1,1,0,0,0-.46,0c-.17.23-.86,1.32-1.09,1.55-.58.81-1.16,1.44-1.79,1.39S92.88,44.24,93.05,43.44Z" fill="none" stroke="#473729" stroke-width="2.37"/><path d="M110.23,39.17c-1.44.81-3.11.52-4.32.52.46-2.19,1.15-4.79,3.52-5.77a1.88,1.88,0,0,1,2,.17,2,2,0,0,1,1,2A4.43,4.43,0,0,1,110.23,39.17Zm-4.5,1.38s1.68-.11,2.31-.23c2-.4,4.61-.92,5.77-3.17a2.57,2.57,0,0,0,.17-2.48,3,3,0,0,0-2.71-1.44c-2.08-.12-4.79,1.44-6.28,3.4a7.49,7.49,0,0,0-1.5,6.17,4.8,4.8,0,0,0,3.23,2.89c2.24.57,4.38-.24,6.86-2.66l-.29-.17-1.21,1a8.91,8.91,0,0,1-1.56.87,3.5,3.5,0,0,1-3.11,0C105.79,43.84,105.68,42.11,105.73,40.55Z" fill="none" stroke="#473729" stroke-width="2.37"/><path d="M122.57,34.21l-2.07,8.65a3.34,3.34,0,0,0,0,2.36,1.64,1.64,0,0,0,1.62.64c2-.06,3.17-2.42,4.09-3.86a1.27,1.27,0,0,0-.52,0c-.17.23-.86,1.32-1.09,1.55-.58.81-1.15,1.44-1.79,1.39s-.69-.7-.52-1.5l2.19-9.23h2.89l.23-.63h-3l.81-3.35c.86-3.11,1-4.5.4-5.25a1.43,1.43,0,0,0-1.44-.63c-1.73.17-3.12,2.42-3.52,3.63h.46s1.5-2.82,2.37-2.59.63,1.27.46,2.13l-1.44,6.06h-2.66l-.17.63Z" fill="none" stroke="#473729" stroke-width="2.37"/><path d="M136.07,34.21,134,42.86a3.33,3.33,0,0,0,.06,2.36,1.62,1.62,0,0,0,1.61.64c2-.06,3.17-2.42,4.1-3.86a1.26,1.26,0,0,0-.52,0c-.18.23-.87,1.32-1.1,1.55-.58.81-1.15,1.44-1.79,1.39s-.69-.7-.52-1.5l2.2-9.23h2.88l.23-.63h-3l.81-3.35c.86-3.11,1-4.5.4-5.25a1.43,1.43,0,0,0-1.44-.63c-1.73.17-3.11,2.42-3.52,3.63h.46s1.5-2.82,2.37-2.59.63,1.27.46,2.13l-1.44,6.06h-2.65l-.18.63Z" fill="none" stroke="#473729" stroke-width="2.37"/><path d="M153.48,39.17c-1.44.81-3.11.52-4.32.52.46-2.19,1.15-4.79,3.51-5.77a1.87,1.87,0,0,1,2,.17,1.94,1.94,0,0,1,1,2A4.38,4.38,0,0,1,153.48,39.17ZM149,40.55s1.67-.11,2.31-.23c2-.4,4.61-.92,5.77-3.17a2.62,2.62,0,0,0,.17-2.48,3,3,0,0,0-2.71-1.44c-2.08-.12-4.79,1.44-6.29,3.4a7.53,7.53,0,0,0-1.5,6.17A4.82,4.82,0,0,0,150,45.69c2.25.57,4.38-.24,6.86-2.66l-.28-.17-1.21,1a8.91,8.91,0,0,1-1.56.87,3.52,3.52,0,0,1-3.12,0C149,43.84,148.92,42.11,149,40.55Z" fill="none" stroke="#473729" stroke-width="2.37"/><path d="M224.29,3.24c.58-.17,1.44-.11,1.44.47,0,1.38-5.36,1.38-9.17,7.2a28.16,28.16,0,0,0-3.74,10.27l-1.1,6.05c-1.27,7.15-3.57,14.48-11.94,17.42C195.92,46,188.83,46,184.91,42.86a6.82,6.82,0,0,1-2.66-7c.81-4.21,4.33-6.28,8.37-7.67a14.24,14.24,0,0,0,11.76,4.1l.11-.35c-3.8-.17-7.55-.63-11-3.92,5.42-1.9,10.73-.92,15.22.81l-.11-.35c-3.81-2.07-11.36-2.82-16-1.61a16.76,16.76,0,0,1,2-18.46C197.82,2.32,206.3,2.26,212,4.34l1.27.46a9.69,9.69,0,0,0,6.28.12,12.38,12.38,0,0,0,3.12-1C223,3.82,223.77,3.42,224.29,3.24ZM189.81,27.12c-4.73,2.13-7.44,4-8.25,8.65a7.77,7.77,0,0,0,3.06,7.67c4.44,3.51,12.17,3.11,16.09,1.61,9.57-3.75,12.91-10.49,13.95-19.32l.58-5.3c.58-4.73,1.9-10.67,6.63-13.61,2.19-1.33,3.92-1.62,4.38-2.42a1,1,0,0,0-.11-1.16,1.89,1.89,0,0,0-1.85-.52c-.34.06-2.77,1.1-2.82,1.1a10,10,0,0,1-2.83.46c-1.9-.06-3.57-.81-5.71-1.61l-1.21-.46c-6-2.2-13.2-1-18.63,4.78C187.21,13.16,186.92,20.43,189.81,27.12Z" fill="none" stroke="#473729" stroke-width="2.37"/><path d="M223.54,43l.92-3.86c.81-3.11,1.1-4.56.52-5.36a1.53,1.53,0,0,0-1.44-.58c-1.73.17-3.11,2.48-3.52,3.63h.47s1.5-2.82,2.36-2.59.52,1.27.35,2.13l-1.56,6.52c-.4,1.44-.46,2.07.11,2.59.35.35.75.35,1.39.35,1.79-.06,3.05-2,4-3.52l-.29-.23-1.27,1.62c-.52.69-1,1.38-1.73,1.21S223.37,44,223.54,43ZM226.94,23a1.31,1.31,0,0,0-1.26-1.27A1.26,1.26,0,0,0,224.52,23a1.22,1.22,0,0,0,1.16,1.26A1.27,1.27,0,0,0,226.94,23Z" fill="none" stroke="#473729" stroke-width="2.37"/><path d="M242.46,11.89l-7.38,31c-.29,1.21-.41,2.08.11,2.59.35.35.63.35,1.27.35,1.79-.06,3.11-1.67,4.21-3.52l-.35-.23s-2.13,3-2.88,2.83-.52-1.15-.4-1.9l6.69-28.38c.63-3,1.09-4.49.51-5.3a1.53,1.53,0,0,0-1.44-.58c-1.73.17-3.11,2.37-3.52,3.58h.47s1.5-2.83,2.36-2.54S242.63,11,242.46,11.89Z" fill="none" stroke="#473729" stroke-width="2.37"/><path d="M256.24,11.89l-7.38,31c-.29,1.21-.41,2.08.11,2.59.35.35.64.35,1.27.35,1.79-.06,3.11-1.67,4.21-3.52l-.35-.23s-2.13,3-2.88,2.83-.52-1.15-.4-1.9l6.69-28.38c.63-3,1.09-4.49.52-5.3a1.55,1.55,0,0,0-1.45-.58c-1.73.17-3.11,2.37-3.51,3.58h.46s1.5-2.83,2.36-2.54S256.41,11,256.24,11.89Z" fill="none" stroke="#473729" stroke-width="2.37"/><path d="M265.29,36.06a6.48,6.48,0,0,1,2.25-1.91,3.28,3.28,0,0,1,3.17-.06,2.74,2.74,0,0,1,1.5,2.25c0,.18-.92,4.1-.92,4.1a5.6,5.6,0,0,1-1.73,3.34A4.34,4.34,0,0,1,265.87,45a3.14,3.14,0,0,1-2.14-2.19C263.16,41.25,264,37.73,265.29,36.06Zm7.21-.87a3.46,3.46,0,0,0-2.13-1.79A6.57,6.57,0,0,0,265,34.84c-2.59,2-3.92,5.25-3.75,7.33a3.78,3.78,0,0,0,2.14,3.28c2.13,1.1,4.9,0,6.69-1.44.23.93.57,1.91,2.19,1.85s3-1.85,4.27-3.75l-.35-.17s-1.15,1.5-1.33,1.67c-.57.69-1.32,1.33-1.84,1.15-.81-.34-.29-1.9,0-3l1.84-8.18H273Z" fill="none" stroke="#473729" stroke-width="2.37"/><path d="M294.12,43.44l.58-2.83c1-4.61,1.27-5.53.63-6.69a2.18,2.18,0,0,0-2.19-.63c-1.78.34-5.3,6.28-6.46,8.13L285.19,44l1.15-4.85c.81-3.11,1.09-4.5.52-5.3a1.54,1.54,0,0,0-1.44-.58c-1.73.17-3.12,2.42-3.52,3.58h.46s1.5-2.77,2.36-2.54.52,1.27.35,2.13l-2.19,8.94h2l2.94-4.56A66.57,66.57,0,0,1,291.7,35c.64-.69,1-1,1.5-.87.75.18.63,1,.52,1.56l-1.5,7.15a3.39,3.39,0,0,0,.12,2.36,1.62,1.62,0,0,0,1.61.64c2-.06,3.17-2.42,4-3.86a1,1,0,0,0-.46,0c-.18.23-.87,1.32-1.1,1.55-.58.81-1.15,1.44-1.79,1.39S294,44.24,294.12,43.44Z" fill="none" stroke="#473729" stroke-width="2.37"/><path d="M315.17,42.34l6.52-27.74c.63-3,1.09-4.49.52-5.3a1.55,1.55,0,0,0-1.45-.58c-1.73.18-3.11,2.37-3.51,3.58h.46s1.5-2.83,2.31-2.54c1,.23.57,1.21.4,2.13l-5.54,23.24a4.28,4.28,0,0,0-2.19-1.73c-1.73-.52-3.92.35-5.71,1.91a8.59,8.59,0,0,0-3.05,7.15,3.68,3.68,0,0,0,2.25,3c2.07.93,4.38,0,6.68-1.78.24,1,.18,2,1.68,2.07s2.88-1.61,4.21-3.69h-.52c-.93,1.27-2.19,2.83-2.71,2.65S314.77,44.3,315.17,42.34Zm-8.82-.46c-.17-1.9.81-6,3.11-7.5a3.49,3.49,0,0,1,3.46-.28,3.08,3.08,0,0,1,1.62,2.47l-.93,3.93a4.43,4.43,0,0,1-2,3.4c-1.21.86-2.42,1.38-3.51.86A3.37,3.37,0,0,1,306.35,41.88Z" fill="none" stroke="#473729" stroke-width="2.37"/><path d="M332.18,39.17c-1.44.81-3.11.52-4.32.52.46-2.19,1.15-4.79,3.51-5.77a1.89,1.89,0,0,1,2,.17,2,2,0,0,1,1,2A4.43,4.43,0,0,1,332.18,39.17Zm-4.5,1.38s1.68-.11,2.31-.23c2-.4,4.61-.92,5.77-3.17a2.57,2.57,0,0,0,.17-2.48,3,3,0,0,0-2.71-1.44c-2.08-.12-4.79,1.44-6.29,3.4a7.52,7.52,0,0,0-1.49,6.17,4.81,4.81,0,0,0,3.22,2.89c2.25.57,4.39-.24,6.87-2.66l-.29-.17-1.21,1a8.91,8.91,0,0,1-1.56.87,3.5,3.5,0,0,1-3.11,0C327.74,43.84,327.63,42.11,327.68,40.55Z" fill="none" stroke="#473729" stroke-width="2.37"/><path d="M345.16,42.57l.75-3.46c.86-3.11,1-4.67.51-5.3a1.48,1.48,0,0,0-1.44-.58c-1.73.17-3.11,2.42-3.51,3.58h.46s1.5-2.77,2.36-2.54.52,1.27.35,2.13l-2.14,8.94h2.08l.86-1.9c1.91-3.87,4-8.42,5.14-9.06.86-.34,1.44-.17,1.67.41s-.75,1-.46,1.38c.52.75,1.44.12,1.9-.46a1.14,1.14,0,0,0,0-1.5,2.16,2.16,0,0,0-1.84-1C349,33.23,345.68,41.36,345.16,42.57Z" fill="none" stroke="#473729" stroke-width="2.37"/></svg>